<svg xmlns="http://www.w3.org/2000/svg" xmlns:xlink="http://www.w3.org/1999/xlink" fill="none" version="1.1" width="375" height="368" viewBox="19 126 375 368"><g style="mix-blend-mode:passthrough"><g style="mix-blend-mode:passthrough"><ellipse cx="83.74577903747559" cy="181.6512851715088" rx="29.53350257873535" ry="29.53350257873535" fill="#FFFFFF" fill-opacity="1"/></g><g style="mix-blend-mode:passthrough"><ellipse cx="113.27931213378906" cy="181.24668884277344" rx="111.77919006347656" ry="111.77919006347656" fill-opacity="0" stroke-opacity="1" stroke="#FFFFFF" fill="none" stroke-width="3"/></g><g style="mix-blend-mode:passthrough"><ellipse cx="345.09703063964844" cy="220.4898223876953" rx="152.52232360839844" ry="152.52232360839844" fill="#E6AE17" fill-opacity="1"/></g><g style="mix-blend-mode:passthrough"><ellipse cx="240.3137969970703" cy="113.27919006347656" rx="111.77919006347656" ry="111.77919006347656" fill-opacity="0" stroke-opacity="1" stroke="#FFFFFF" fill="none" stroke-width="3"/></g><g style="mix-blend-mode:passthrough"><path d="M130.299756634375,334.9827079772594C130.280800214375,335.5065745683594,130.271240234375,336.03283756835935,130.271240234375,336.56133756835936C130.271240234375,360.2456575683594,149.471140234375,379.4455575683594,173.155540234375,379.4455575683594C196.839840234375,379.4455575683594,216.03974023437502,360.2456575683594,216.03974023437502,336.56133756835936C216.03974023437502,336.03283756835935,216.03014023437498,335.5065745683594,216.011240234375,334.9827079772594L130.299756634375,334.9827079772594Z" fill-rule="evenodd" fill="#FFFFFF" fill-opacity="1"/></g><g style="mix-blend-mode:passthrough" transform="matrix(0.8313068747520447,0.555813729763031,-0.555813729763031,0.8313068747520447,204.60220442253694,28.38586148493914)"><path d="M62.615275720214846,351.25685119624376C58.08313572021484,360.47653490234376,55.53780365021484,370.84917490234375,55.53780365021484,381.81637490234374C55.53780365021484,420.12437490234373,86.59222572021484,451.17837490234376,124.89982572021485,451.17837490234376C163.20792572021486,451.17837490234376,194.26192572021483,420.12437490234373,194.26192572021483,381.81637490234374C194.26192572021483,370.84917490234375,191.71692572021485,360.47653490234376,187.18392572021483,351.25685119624376L62.615275720214846,351.25685119624376Z" fill-rule="evenodd" fill="#FFFFFF" fill-opacity="1"/></g></g></svg>